<?xml version="1.0" encoding="UTF-8"?>
<svg id="Capa_1" xmlns="http://www.w3.org/2000/svg" viewBox="0 0 601.72 323.93">
  <path d="M439.76.25c89.31,0,161.71,72.4,161.71,161.71s-72.4,161.72-161.71,161.72c-59.02,0-110.67-31.63-138.9-78.86-14.49-24.23-22.82-52.57-22.82-82.86s8.33-58.63,22.82-82.86C329.09,31.87,380.74.25,439.76.25ZM551.2,187.99c0-6.73-1.88-12.72-5.63-17.97-3.46-4.83-7.48-8.37-12.04-10.62-.46-.23-.5-.87-.05-1.12,1.87-1.03,3.82-2.49,5.88-4.38,2.45-2.27,4.56-5.12,6.31-8.55,1.74-3.43,2.62-7.35,2.62-11.75,0-8.54-1.81-15.73-5.44-21.56-3.63-5.83-9.19-10.3-16.7-13.41-7.52-3.1-17.16-4.66-28.95-4.66h-53.91c-.58,0-.85.7-.44,1.1,10.65,10.36,16.25,24.36,16.25,40.85,0,11.75-2.85,22.08-8.47,30.67-2.72,4.17-5.88,7.9-9.48,11.19-.21.19-.26.51-.12.76l19.07,34.62.13.24.12.25c1.36,2.71,2.05,5.51,2.05,8.32,0,2.47-.5,4.87-1.43,7.09-.18.42.11.89.57.89h37.6c11.14,0,20.56-1.62,28.27-4.86,7.7-3.23,13.59-7.96,17.67-14.18,4.08-6.22,6.12-13.85,6.12-22.92ZM448.57,225.67c0-.65-.2-1.36-.59-2.14l-17.8-32.3-7.14-12.99c-.17-.3-.06-.68.25-.85,2.48-1.38,4.77-2.96,6.89-4.72,3.42-2.83,6.38-6.13,8.86-9.94,4.14-6.34,6.22-14.04,6.22-23.11,0-14.38-5.02-25.58-15.06-33.61,0,0-.01-.01-.02-.01-10.03-8.02-23.84-12.03-41.44-12.03h-55.37c-1,0-1.92.29-2.76.86-1.5,1.02-2.29,2.81-2.29,4.62v125.02c0,1.8.79,3.58,2.27,4.6.85.58,1.78.88,2.78.88h31.67c1.42,0,2.62-.49,3.59-1.46.96-.97,1.45-2.17,1.45-3.6v-39.57c0-.35.29-.64.64-.64h12.96c.24,0,.46.14.57.36l19.25,39.66c.39,1.04,1.23,2.17,2.52,3.4,1.3,1.23,3.18,1.85,5.64,1.85h32.82c1.17,0,2.14-.43,2.92-1.27.77-.84,1.17-1.85,1.17-3.01Z" fill="#2d4a9a"/>
  <path d="M545.57,170.02c3.75,5.25,5.63,11.24,5.63,17.97,0,9.07-2.04,16.7-6.12,22.92-4.08,6.22-9.97,10.95-17.67,14.18-7.71,3.24-17.13,4.86-28.27,4.86h-37.6c-.46,0-.75-.47-.57-.89.93-2.22,1.43-4.62,1.43-7.09,0-2.81-.69-5.61-2.05-8.32l-.12-.25-.13-.24-19.07-34.62c-.14-.25-.09-.57.12-.76,3.6-3.29,6.76-7.02,9.48-11.19,5.62-8.59,8.47-18.92,8.47-30.67,0-16.49-5.6-30.49-16.25-40.85-.41-.4-.14-1.1.44-1.1h53.91c11.79,0,21.43,1.56,28.95,4.66,7.51,3.11,13.07,7.58,16.7,13.41,3.63,5.83,5.44,13.02,5.44,21.56,0,4.4-.88,8.32-2.62,11.75-1.75,3.43-3.86,6.28-6.31,8.55-2.06,1.89-4.01,3.35-5.88,4.38-.45.25-.41.89.05,1.12,4.56,2.25,8.58,5.79,12.04,10.62ZM504.38,196.63c2.08-2.65,3.12-5.6,3.12-8.84s-1.11-6.31-3.31-8.83c-2.2-2.53-5.37-3.79-9.51-3.79h-22.1c-.35,0-.63.28-.63.63v24.18c0,.35.28.63.63.63h22.1c4.39,0,7.64-1.32,9.7-3.98ZM504.77,134.96c0-3.11-.96-5.83-2.9-8.16-1.95-2.33-4.99-3.5-9.14-3.5h-20.15c-.35,0-.63.28-.63.63v22.05c0,.35.28.63.63.63h20.15c4.15,0,7.19-1.17,9.14-3.5,1.94-2.33,2.9-5.04,2.9-8.15Z" fill="#fff"/>
  <path d="M507.5,187.79c0,3.24-1.04,6.19-3.12,8.84-2.06,2.66-5.31,3.98-9.7,3.98h-22.1c-.35,0-.63-.28-.63-.63v-24.18c0-.35.28-.63.63-.63h22.1c4.14,0,7.31,1.26,9.51,3.79,2.2,2.52,3.31,5.47,3.31,8.83Z" fill="#2d4a9a"/>
  <path d="M501.87,126.8c1.94,2.33,2.9,5.05,2.9,8.16s-.96,5.82-2.9,8.15c-1.95,2.33-4.99,3.5-9.14,3.5h-20.15c-.35,0-.63-.28-.63-.63v-22.05c0-.35.28-.63.63-.63h20.15c4.15,0,7.19,1.17,9.14,3.5Z" fill="#2d4a9a"/>
  <path d="M447.98,223.53c.39.78.59,1.49.59,2.14,0,1.16-.4,2.17-1.17,3.01-.78.84-1.75,1.27-2.92,1.27h-32.82c-2.46,0-4.34-.62-5.64-1.85-1.29-1.23-2.13-2.36-2.52-3.4l-19.25-39.66c-.11-.22-.33-.36-.57-.36h-12.96c-.35,0-.64.29-.64.64v39.57c0,1.43-.49,2.63-1.45,3.6-.97.97-2.17,1.46-3.59,1.46h-31.67c-1,0-1.93-.3-2.78-.88-1.48-1.02-2.27-2.8-2.27-4.6v-125.02c0-1.81.79-3.6,2.29-4.62.84-.57,1.76-.86,2.76-.86h55.37c17.6,0,31.41,4.01,41.44,12.03.01,0,.02.01.02.01,10.04,8.03,15.06,19.23,15.06,33.61,0,9.07-2.08,16.77-6.22,23.11-2.48,3.81-5.44,7.11-8.86,9.94-2.12,1.76-4.41,3.34-6.89,4.72-.31.17-.42.55-.25.85l7.14,12.99,17.8,32.3ZM401.94,139.42c0-3.89-1.06-7.19-3.2-9.91-2.14-2.71-5.53-4.08-10.2-4.08h-17.82c-.35,0-.63.29-.63.64v25.93c0,.35.28.63.63.63h17.82c4.53,0,7.9-1.27,10.11-3.79,2.19-2.53,3.29-5.66,3.29-9.42Z" fill="#fff"/>
  <path d="M398.74,129.51c2.14,2.72,3.2,6.02,3.2,9.91s-1.1,6.89-3.29,9.42c-2.21,2.52-5.58,3.79-10.11,3.79h-17.82c-.35,0-.63-.28-.63-.63v-25.93c0-.35.28-.64.63-.64h17.82c4.67,0,8.06,1.37,10.2,4.08Z" fill="#2d4a9a"/>
  <path d="M278.04,161.96c0,30.29,8.33,58.63,22.82,82.86-28.23,47.23-79.87,78.86-138.89,78.86C72.65,323.68.25,251.27.25,161.96S72.65.25,161.97.25c59.02,0,110.66,31.62,138.89,78.85-14.49,24.23-22.82,52.57-22.82,82.86ZM254.46,149.04c4.38-11.39,4.09-23.25,3.77-35.14-.18-6.85-1.41-13.41-5.05-19.35-2.96-4.85-7.32-7.3-12.93-7.75-7.11-.56-13.71,1.42-19.96,4.43-20.23,9.72-35.89,24.85-49.3,42.5-3.12,4.1-5.84,8.5-8.72,12.73-.62-.37-.94-.46-1.06-.66-8.88-15.71-20.95-28.68-34.73-40.11-10.15-8.43-21.06-15.59-34.25-18.45-12.34-2.68-21.44,2.72-24.36,14.9-3.21,13.37-2.97,26.9-.08,40.23,2.48,11.43,8.48,20.71,19.88,25.29,3.79,1.51,7.89,2.24,12.46,3.49-1.12,1.2-1.99,2.23-2.97,3.15-11.34,10.56-14.16,22.78-8.16,37.11,10.31,24.64,40.81,38.45,63.58,10.27,3.42-4.22,6.41-8.77,9.75-13.38,1.99,3.06,3.68,5.88,5.58,8.55,6.28,8.83,13.71,16.42,24.51,19.34,13.21,3.59,23.99-1.45,33.32-10.54,14.25-13.88,18.98-37.38-.12-52.9-.52-.42-.71-1.25-1.16-2.06.91-.16,1.45-.27,1.99-.34,13.42-1.73,23.05-8.42,28.01-21.31Z" fill="#c24793"/>
  <path d="M258.23,113.9c.32,11.89.61,23.75-3.77,35.14-4.96,12.89-14.59,19.58-28.01,21.31-.54.07-1.08.18-1.99.34.45.81.64,1.64,1.16,2.06,19.1,15.52,14.37,39.02.12,52.9-9.33,9.09-20.11,14.13-33.32,10.54-10.8-2.92-18.23-10.51-24.51-19.34-1.9-2.67-3.59-5.49-5.58-8.55-3.34,4.61-6.33,9.16-9.75,13.38-22.77,28.18-53.27,14.37-63.58-10.27-6-14.33-3.18-26.55,8.16-37.11.98-.92,1.85-1.95,2.97-3.15-4.57-1.25-8.67-1.98-12.46-3.49-11.4-4.58-17.4-13.86-19.88-25.29-2.89-13.33-3.13-26.86.08-40.23,2.92-12.18,12.02-17.58,24.36-14.9,13.19,2.86,24.1,10.02,34.25,18.45,13.78,11.43,25.85,24.4,34.73,40.11.12.2.44.29,1.06.66,2.88-4.23,5.6-8.63,8.72-12.73,13.41-17.65,29.07-32.78,49.3-42.5,6.25-3.01,12.85-4.99,19.96-4.43,5.61.45,9.97,2.9,12.93,7.75,3.64,5.94,4.87,12.5,5.05,19.35Z" fill="#fff"/>
</svg>